<?xml version="1.0" encoding="utf-8"?>
<!-- Generator: Adobe Illustrator 25.4.1, SVG Export Plug-In . SVG Version: 6.00 Build 0)  -->
<svg version="1.1" id="Layer_1" xmlns="http://www.w3.org/2000/svg" xmlns:xlink="http://www.w3.org/1999/xlink" x="0px" y="0px"
	 viewBox="0 0 24 24" style="enable-background:new 0 0 24 24;" xml:space="preserve">
<path d="M2,4h6v2l8,1V5h6v6h-2v2h2v6h-6v-2l-8,1v2H2v-6h2v-4H2V4 M16,11V9L8,8v2H6v4h2v2l8-1v-2h2v-2H16 M4,6v2h2V6H4 M18,7v2h2V7
	H18 M4,16v2h2v-2H4 M18,15v2h2v-2H18z"/>
</svg>
