<?xml version="1.0" encoding="utf-8"?>
<!-- Generator: Adobe Illustrator 25.4.1, SVG Export Plug-In . SVG Version: 6.00 Build 0)  -->
<svg version="1.1" id="Layer_1" xmlns="http://www.w3.org/2000/svg" xmlns:xlink="http://www.w3.org/1999/xlink" x="0px" y="0px"
	 viewBox="0 0 24 24" style="enable-background:new 0 0 24 24;" xml:space="preserve">
<path d="M22,12c0-5.5-4.5-10-10-10S2,6.5,2,12s4.5,10,10,10S22,17.5,22,12 M10,12c0-4.4,0.9-8,2-8c1.1,0,2,3.6,2,8s-0.9,8-2,8
	C10.9,20,10,16.4,10,12 M20,12c0,3.4-2.1,6.2-5.1,7.4c0.6-1.5,1.1-3.8,1.1-7.4c0-2.2-0.2-5.3-1.1-7.4C17.9,5.7,20,8.6,20,12 M4,12
	c0-3.4,2.1-6.3,5.1-7.4C8.4,6.1,8,8.4,8,12c0,2.2,0.2,5.3,1.1,7.4C6.1,18.2,4,15.4,4,12z"/>
</svg>
