<?xml version="1.0" encoding="utf-8"?>
<!-- Generator: Adobe Illustrator 25.4.1, SVG Export Plug-In . SVG Version: 6.00 Build 0)  -->
<svg version="1.1" id="Layer_1" xmlns="http://www.w3.org/2000/svg" xmlns:xlink="http://www.w3.org/1999/xlink" x="0px" y="0px"
	 viewBox="0 0 24 24" style="enable-background:new 0 0 24 24;" xml:space="preserve">
<path d="M10,12l4-4l-4-4v3.1C5.4,7.6,2,9.6,2,12s3.4,4.4,8,4.9v-2c-3.5-0.3-6-1.5-6-2.9s2.5-2.6,6-2.9V12 M20,12
	c0,1.4-2.5,2.6-6,2.9v2c4.6-0.5,8-2.5,8-4.9c0-2.2-2.7-4-6.6-4.7L16.1,8l-1.2,1.2C17.9,9.6,20,10.7,20,12 M11,22h2V11l-2,2V22 M11,2
	v1l2,2V2H11z"/>
</svg>
